HIERARCHY
ROOT SpineBase
{
  OFFSET 0.000000 0.000000 0.000000
  CHANNELS 6 Xposition Yposition Zposition Zrotation Xrotation Yrotation
  JOINT SpineMid
  {
    OFFSET 0.000000 28.178407 0.000000
    CHANNELS 3 Zrotation Xrotation Yrotation
    JOINT SpineShoulder
    {
      OFFSET -0.082815 21.069259 -0.665036
      CHANNELS 3 Zrotation Xrotation Yrotation
      JOINT Neck
      {
        OFFSET -0.052667 7.003433 -0.526125
        CHANNELS 3 Zrotation Xrotation Yrotation
        JOINT Head
        {
          OFFSET -6.609054 11.749388 0.025920
          CHANNELS 3 Zrotation Xrotation Yrotation
          End Site
          {
            OFFSET 0 0 0
          }
        }
      }
      JOINT ShoulderLeft
      {
        OFFSET -11.206475 -1.575054 10.265064
        CHANNELS 3 Zrotation Xrotation Yrotation
        JOINT ElbowLeft
        {
          OFFSET -4.009011 -21.468833 2.897157
          CHANNELS 3 Zrotation Xrotation Yrotation
          JOINT WristLeft
          {
            OFFSET -2.835654 -16.947237 -1.412425
            CHANNELS 3 Zrotation Xrotation Yrotation
            JOINT HandLeft
            {
              OFFSET -1.444364 -5.507432 -1.113735
              CHANNELS 3 Zrotation Xrotation Yrotation
              JOINT HandTipLeft
              {
                OFFSET -0.468315 -0.648868 -0.997377
                CHANNELS 3 Zrotation Xrotation Yrotation
                End Site
                {
                  OFFSET 0 0 0
                }
              }
              JOINT ThumbLeft
              {
                OFFSET 0.712496 0.705815 -2.612219
                CHANNELS 3 Zrotation Xrotation Yrotation
                End Site
                {
                  OFFSET 0 0 0
                }
              }
            }
          }
        }
      }
      JOINT ShoulderRight
      {
        OFFSET 9.083116 -3.529775 -10.508917
        CHANNELS 3 Zrotation Xrotation Yrotation
        JOINT ElbowRight
        {
          OFFSET 4.120784 -21.468385 -6.092580
          CHANNELS 3 Zrotation Xrotation Yrotation
          JOINT WristRight
          {
            OFFSET -6.401854 -19.601454 -0.700103
            CHANNELS 3 Zrotation Xrotation Yrotation
            JOINT HandRight
            {
              OFFSET -3.838571 -7.010043 -0.379097
              CHANNELS 3 Zrotation Xrotation Yrotation
              JOINT HandTipRight
              {
                OFFSET -1.920281 -5.884536 -0.404401
                CHANNELS 3 Zrotation Xrotation Yrotation
                End Site
                {
                  OFFSET 0 0 0
                }
              }
              JOINT ThumbRight
              {
                OFFSET -2.625691 1.883187 0.270519
                CHANNELS 3 Zrotation Xrotation Yrotation
                End Site
                {
                  OFFSET 0 0 0
                }
              }
            }
          }
        }
      }
    }
  }
  JOINT HipLeft
  {
    OFFSET -5.357414 1.644415 0.585067
    CHANNELS 3 Zrotation Xrotation Yrotation
    JOINT KneeLeft
    {
      OFFSET -3.298121 -24.132604 3.502883
      CHANNELS 3 Zrotation Xrotation Yrotation
      JOINT AnkleLeft
      {
        OFFSET 4.047708 -39.460775 12.525903
        CHANNELS 3 Zrotation Xrotation Yrotation
        JOINT FootLeft
        {
          OFFSET -6.394563 -3.325222 -9.117518
          CHANNELS 3 Zrotation Xrotation Yrotation
          End Site
          {
            OFFSET 0 0 0
          }
        }
      }
    }
  }
  JOINT HipRight
  {
    OFFSET 5.314934 0.453157 -6.849802
    CHANNELS 3 Zrotation Xrotation Yrotation
    JOINT KneeRight
    {
      OFFSET -3.604960 -23.595997 1.278363
      CHANNELS 3 Zrotation Xrotation Yrotation
      JOINT AnkleRight
      {
        OFFSET 3.292649 -38.564677 10.397947
        CHANNELS 3 Zrotation Xrotation Yrotation
        JOINT FootRight
        {
          OFFSET -4.779040 -7.033927 4.504827
          CHANNELS 3 Zrotation Xrotation Yrotation
          End Site
          {
            OFFSET 0 0 0
          }
        }
      }
    }
  }
}
MOTION
Frames: 11
Frame Time: 0.033333
-2.487695 50.217648 321.154654 -0.096425 -2.876147 18.566346 1.007961 2.695603 -18.592483 -0.272931 -3.574730 -0.055782 -0.459974 27.504112 13.873708 0.000000 0.000000 0.000000 0.000115 7.998953 -0.800345 1.913044 11.627797 -2.045904 14.933627 -3.595671 -1.049884 -0.996312 -31.793077 7.180400 0.000000 0.000000 0.000000 0.000000 0.000000 0.000000 -122.457385 -1.749853 80.846236 139.972829 -72.508304 49.455951 -4.104924 -5.467679 2.346153 -5.807853 -1.027049 -0.065904 0.000000 0.000000 0.000000 0.000000 0.000000 0.000000 51.382836 -45.704914 17.610466 -61.296766 42.749279 11.894030 -7.668592 3.820495 23.100070 0.000000 0.000000 0.000000 -70.823948 24.811467 -4.096495 77.758525 -14.498650 6.815130 91.997910 61.603555 -160.670871 0.000000 0.000000 0.000000
0.239590 62.019902 277.693813 -0.320287 -4.647102 -35.136144 13.579098 -19.307744 37.260093 -0.110687 23.933747 0.249154 0.624608 38.118606 19.644090 0.000000 0.000000 0.000000 2.025834 4.274850 0.115474 6.595527 31.818318 -8.358871 21.506522 -5.651308 1.370674 -12.674357 -27.479866 -4.222324 0.000000 0.000000 0.000000 0.000000 0.000000 0.000000 -155.794501 -34.367023 -7.242424 99.376965 -24.324720 -34.443320 5.556767 -31.239177 10.386373 -22.288837 34.331315 9.885338 0.000000 0.000000 0.000000 0.000000 0.000000 0.000000 84.028641 -9.060849 61.388077 -77.860047 52.961574 30.819771 -0.977575 9.150628 23.666365 0.000000 0.000000 0.000000 -80.804967 -52.372334 -6.728150 84.964626 -0.871206 -16.879242 104.640177 61.564886 173.407703 0.000000 0.000000 0.000000
0.120093 73.301983 241.821380 -1.494360 -6.593752 -65.999778 32.492437 -13.651479 69.224924 -1.059848 36.750539 1.087353 -2.582949 45.521229 26.241539 0.000000 0.000000 0.000000 3.178070 -0.307791 1.159536 17.771149 44.394740 -17.651147 17.574273 1.889838 -3.072150 -12.726292 -25.955185 -14.112481 0.000000 0.000000 0.000000 0.000000 0.000000 0.000000 -161.607254 -31.311923 -63.390045 80.039236 14.808056 -35.120292 13.759448 -34.512116 10.272309 -42.701079 44.746701 35.164543 0.000000 0.000000 0.000000 0.000000 0.000000 0.000000 87.828000 14.257796 69.407690 -73.078464 56.315681 32.698630 7.121953 11.133645 16.963280 0.000000 0.000000 0.000000 50.420108 -76.602923 114.875585 78.437319 11.564212 -30.712883 112.316414 59.943094 153.840982 0.000000 0.000000 0.000000
-2.183667 84.000253 214.645935 -3.421831 -7.988798 -77.403551 38.324053 -7.315733 78.160644 -2.938962 41.808406 2.606384 -9.138692 49.117670 33.775968 0.000000 0.000000 0.000000 3.703286 -5.462590 2.076806 30.621094 45.787560 -25.704347 4.676008 7.599749 -9.026820 -3.516442 -21.014759 -17.836226 0.000000 0.000000 0.000000 0.000000 0.000000 0.000000 -149.781976 -36.341534 -90.904729 59.839810 24.163057 -18.619395 12.776187 -19.352639 11.024283 -47.946005 39.669389 40.489559 0.000000 0.000000 0.000000 0.000000 0.000000 0.000000 77.856841 17.988968 75.079450 -49.675400 53.021632 16.911172 13.775453 10.393282 6.727165 0.000000 0.000000 0.000000 50.847629 -48.294336 109.235917 59.405915 23.134014 -30.114009 117.847130 66.934798 141.908702 0.000000 0.000000 0.000000
-6.385050 93.745517 196.748080 -4.419290 -8.636936 -81.780454 39.120354 -4.265799 80.976894 -4.296762 43.142820 3.666079 -19.367554 47.877099 40.722547 0.000000 0.000000 0.000000 2.762470 -10.891129 2.641094 28.819719 22.059058 -15.088234 -0.833600 31.090221 -18.453296 -0.291058 -15.962976 -19.207249 0.000000 0.000000 0.000000 0.000000 0.000000 0.000000 -117.270075 -56.557704 -92.914242 40.393509 18.794741 1.027747 6.536152 -5.099974 14.975060 -55.016231 26.586852 41.777383 0.000000 0.000000 0.000000 0.000000 0.000000 0.000000 54.276549 12.114738 82.596349 -22.734726 37.263149 -0.492034 17.040349 7.772479 -1.602652 0.000000 0.000000 0.000000 30.099191 -17.528744 91.210329 22.416120 23.195091 -13.388196 53.733740 81.393505 -129.475650 0.000000 0.000000 0.000000
-12.105662 101.789437 189.071961 -4.231390 -7.233700 -79.346928 38.047858 -5.569918 79.157162 -3.215967 41.514067 2.801305 -28.786699 46.532493 46.089014 0.000000 0.000000 0.000000 -1.084348 -15.550613 2.543866 18.049007 -21.304194 2.204724 31.344733 74.255838 -52.348683 7.327388 -18.410372 -13.310120 0.000000 0.000000 0.000000 0.000000 0.000000 0.000000 -26.737095 -55.402490 -23.667132 27.366008 -1.392527 15.064912 -6.009571 13.963712 13.029920 -64.224863 -2.580561 29.449968 0.000000 0.000000 0.000000 0.000000 0.000000 0.000000 27.512954 1.627482 82.252020 -7.200445 14.784581 -5.557748 16.874222 3.741190 -4.207866 0.000000 0.000000 0.000000 14.865578 4.940350 80.831555 -4.956083 13.559119 -3.358505 7.063784 59.024208 -51.238945 0.000000 0.000000 0.000000
-17.765403 104.080983 192.205427 -4.782356 -5.515927 -72.284579 34.355796 -8.894978 72.940909 -2.881166 37.612084 2.459037 -36.842978 38.027111 43.848689 0.000000 0.000000 0.000000 -3.116342 -18.512839 2.170162 8.788056 -33.458556 5.282043 62.780648 80.440245 -74.541080 9.463758 -21.428065 -3.343400 0.000000 0.000000 0.000000 0.000000 0.000000 0.000000 -5.191178 -40.998163 -10.612927 28.269000 3.211644 9.591076 -21.353957 27.411387 5.674026 -64.242976 -19.923711 6.599057 0.000000 0.000000 0.000000 0.000000 0.000000 0.000000 14.928897 -0.916754 73.944493 -6.105908 13.223519 -3.646757 17.242837 -1.561975 -12.679032 0.000000 0.000000 0.000000 10.946418 11.414907 72.387630 -13.985540 14.274722 -1.409026 37.134191 58.725570 -78.863867 0.000000 0.000000 0.000000
-23.076707 100.859160 206.095561 -5.133099 -4.554294 -56.109933 23.875058 -13.638682 57.256806 -2.018328 28.546811 1.608361 -39.598568 27.064083 33.196916 0.000000 0.000000 0.000000 -2.233187 -15.659530 2.025716 0.290319 -39.277126 5.957527 75.651234 68.865462 -79.769117 14.781356 -46.084352 18.135489 0.000000 0.000000 0.000000 0.000000 0.000000 0.000000 1.829163 -32.044761 -7.340449 27.351558 11.048548 3.389514 -16.263229 24.546830 -4.866047 -6.032389 -0.067203 -0.000224 0.000000 0.000000 0.000000 0.000000 0.000000 0.000000 7.041229 -0.137460 56.729957 -6.726661 16.287980 -1.475657 19.367813 -15.908092 -7.981045 0.000000 0.000000 0.000000 8.962597 14.100849 55.386696 -18.814683 14.288637 -0.781486 35.265218 50.794010 -69.023746 0.000000 0.000000 0.000000
-27.694185 91.417956 232.138232 -5.362165 -4.043724 -21.032104 5.451364 -10.827525 20.557687 -0.944408 12.428968 0.462425 -36.865948 16.937356 19.804434 0.000000 0.000000 0.000000 -2.570876 -14.134399 1.814535 -2.845920 -36.783528 5.222477 60.454918 49.332456 -58.251548 13.627403 -49.962178 27.956455 0.000000 0.000000 0.000000 0.000000 0.000000 0.000000 5.766444 -25.095663 -5.885165 25.816515 11.223621 2.288931 -23.544290 26.610605 -6.046717 18.948481 2.690750 0.228465 0.000000 0.000000 0.000000 0.000000 0.000000 0.000000 6.218917 3.920892 21.063685 -10.335694 19.093465 0.030459 10.916666 -14.639128 -5.769826 0.000000 0.000000 0.000000 9.928813 15.959534 18.816713 -18.702823 9.872460 -0.874475 33.321865 44.326862 -62.375049 0.000000 0.000000 0.000000
-30.912241 74.938906 270.962622 -5.384681 -3.302064 26.898366 7.085710 12.895943 -27.286223 -0.146252 -14.855380 -0.969118 -30.954538 9.265076 9.466366 0.000000 0.000000 0.000000 -4.966375 -13.152076 1.120929 -3.680904 -33.879178 4.607451 50.729252 30.222508 -41.660085 2.508602 -38.187685 17.348055 0.000000 0.000000 0.000000 0.000000 0.000000 0.000000 6.571492 -17.070026 -4.189881 25.580031 8.665916 1.148304 -26.107953 33.462301 -11.734472 28.805993 -2.774840 11.034718 0.000000 0.000000 0.000000 0.000000 0.000000 0.000000 8.424654 1.919406 -27.250919 -10.284454 19.084621 0.832555 10.987012 -15.337028 -11.572539 0.000000 0.000000 0.000000 21.517049 9.762588 -30.336362 -19.449143 6.561104 -1.199999 40.919992 46.230106 -76.824632 0.000000 0.000000 0.000000
-31.699986 71.047303 279.911909 -5.444986 -3.130795 34.849991 3.657741 4.533986 -35.027239 -0.229941 -6.093862 -0.558436 -31.420692 16.800334 17.829363 0.000000 0.000000 0.000000 -8.587686 -11.000184 0.150102 -4.032067 -28.000749 4.045464 49.390267 9.810137 -30.008132 -7.768542 -24.263655 11.610810 0.000000 0.000000 0.000000 0.000000 0.000000 0.000000 7.823217 -15.739810 -4.078825 24.792900 8.110667 1.461936 -26.462164 33.773029 -12.202975 29.319438 -3.500436 12.208403 0.000000 0.000000 0.000000 0.000000 0.000000 0.000000 9.673061 1.974416 -35.367973 -10.572319 18.050471 0.864509 10.927609 -15.635847 -11.586508 0.000000 0.000000 0.000000 22.728071 7.425825 -37.989269 -19.112013 6.647835 -1.059526 39.313764 44.384865 -72.365460 0.000000 0.000000 0.000000
